<?xml version="1.0" standalone="no"?>
<!DOCTYPE svg PUBLIC "-//W3C//DTD SVG 20010904//EN"
 "http://www.w3.org/TR/2001/REC-SVG-20010904/DTD/svg10.dtd">
<svg version="1.0" xmlns="http://www.w3.org/2000/svg"
 width="228.000000pt" height="203.000000pt" viewBox="0 0 228.000000 203.000000"
 preserveAspectRatio="xMidYMid meet">

<g transform="translate(0.000000,203.000000) scale(0.100000,-0.100000)"
fill="#000000" stroke="none">
<path d="M1102 1823 c3 -150 5 -178 18 -178 13 0 15 26 15 175 0 159 -2 175
-18 178 -16 3 -17 -9 -15 -175z"/>
<path d="M1380 1944 c-6 -14 -10 -28 -10 -32 0 -4 -16 -67 -36 -140 -35 -129
-39 -183 -10 -151 16 18 99 326 91 339 -11 17 -25 11 -35 -16z"/>
<path d="M820 1953 c0 -25 88 -325 98 -335 26 -26 24 27 -6 130 -16 59 -35
131 -42 160 -9 40 -16 52 -31 52 -10 0 -19 -3 -19 -7z"/>
<path d="M982 1859 c2 -19 8 -33 13 -31 15 3 12 55 -3 60 -10 3 -13 -5 -10
-29z"/>
<path d="M1237 1883 c-4 -3 -7 -19 -7 -35 0 -40 24 -31 28 10 3 30 -6 41 -21
25z"/>
<path d="M565 1850 c-3 -5 2 -24 11 -42 22 -42 119 -211 140 -243 16 -25 44
-34 44 -15 0 16 -171 310 -180 310 -5 0 -12 -4 -15 -10z"/>
<path d="M1647 1853 c-130 -227 -167 -293 -167 -303 0 -6 7 -10 16 -8 25 5
190 290 179 308 -7 12 -22 13 -28 3z"/>
<path d="M730 1806 c0 -25 12 -46 26 -46 15 0 18 18 8 44 -8 20 -34 21 -34 2z"/>
<path d="M1471 1798 c-10 -26 -6 -38 14 -38 13 0 25 21 25 46 0 23 -30 16 -39
-8z"/>
<path d="M995 1760 c-4 -6 -3 -35 0 -65 6 -45 11 -55 26 -55 18 0 19 5 14 53
-4 28 -8 58 -10 65 -5 15 -21 16 -30 2z"/>
<path d="M1217 1753 c-3 -10 -8 -39 -12 -65 -6 -43 -4 -48 13 -48 16 0 20 10
26 56 3 30 4 60 1 65 -10 15 -23 11 -28 -8z"/>
<path d="M776 1701 c-8 -12 41 -121 53 -121 21 0 20 21 -3 74 -24 53 -38 67
-50 47z"/>
<path d="M1414 1655 c-24 -51 -25 -75 -4 -75 11 0 50 86 50 111 0 36 -21 19
-46 -36z"/>
<path d="M524 1686 c-6 -16 11 -46 27 -46 15 0 10 37 -6 50 -12 10 -16 9 -21
-4z"/>
<path d="M1688 1676 c-6 -15 -8 -29 -5 -32 9 -9 37 15 37 32 0 25 -20 25 -32
0z"/>
<path d="M355 1677 c-6 -14 18 -44 106 -135 63 -64 120 -118 127 -120 35 -9 0
39 -107 150 -99 102 -121 120 -126 105z"/>
<path d="M1756 1569 c-105 -110 -138 -156 -103 -147 17 4 237 232 237 246 0
32 -29 11 -134 -99z"/>
<path d="M585 1590 c-8 -13 42 -89 63 -97 31 -13 29 15 -4 57 -39 50 -49 56
-59 40z"/>
<path d="M1596 1551 c-41 -56 -43 -61 -18 -61 21 0 86 85 77 100 -11 18 -23
11 -59 -39z"/>
<path d="M1087 1506 c-14 -31 -30 -56 -36 -56 -9 0 -47 43 -67 75 -6 12 -16
16 -27 12 -13 -5 -17 -19 -17 -55 0 -72 -16 -80 -74 -36 -57 43 -71 37 -57
-26 16 -73 -5 -88 -78 -50 -51 26 -70 9 -41 -37 10 -17 20 -41 22 -54 3 -23 0
-24 -59 -24 -34 0 -64 -3 -68 -7 -3 -3 10 -27 30 -53 43 -57 35 -75 -30 -75
-60 0 -65 -21 -15 -66 22 -20 40 -40 40 -45 0 -5 -21 -20 -47 -33 l-48 -25 93
-1 c88 0 93 1 101 24 10 25 30 36 67 36 20 0 24 -5 24 -30 0 -20 5 -30 15 -30
8 0 15 9 15 20 0 25 3 25 75 0 32 -11 80 -20 107 -20 41 0 53 5 72 27 18 20
28 25 49 19 14 -3 29 -15 32 -26 5 -17 15 -20 69 -20 35 0 83 7 106 15 54 19
70 19 70 0 0 -8 7 -15 15 -15 9 0 15 9 15 24 0 15 7 27 19 31 25 8 68 -13 74
-36 5 -17 15 -19 99 -19 l93 1 -47 25 c-27 13 -48 28 -48 33 0 5 18 24 40 44
51 44 46 67 -14 67 -72 0 -78 28 -19 92 35 37 23 47 -46 41 -71 -7 -80 3 -52
60 36 75 26 87 -45 51 -46 -23 -50 -24 -61 -7 -7 9 -11 24 -9 32 27 96 9 114
-55 56 -36 -32 -43 -35 -55 -23 -8 8 -17 38 -21 66 -7 59 -24 68 -47 24 -8
-15 -24 -36 -35 -46 -19 -17 -24 -18 -36 -5 -8 8 -20 32 -28 53 -7 22 -18 41
-24 43 -6 2 -23 -21 -36 -51z m-28 -182 c35 -44 28 -61 -32 -78 -67 -19 -129
-64 -169 -121 -34 -48 -52 -48 -84 0 -15 23 -14 26 4 53 49 68 128 127 211
157 49 18 47 18 70 -11z m238 -9 c59 -27 147 -104 170 -149 14 -26 13 -31 -5
-55 -28 -39 -45 -36 -78 10 -37 53 -106 106 -158 121 -62 17 -71 29 -52 67 21
39 50 40 123 6z m-217 -179 c0 -85 -2 -96 -21 -109 -19 -14 -29 -12 -102 12
-50 17 -83 34 -85 43 -5 25 83 105 141 127 28 11 55 20 60 20 4 1 7 -41 7 -93z
m218 33 c38 -32 83 -90 77 -100 -3 -4 -43 -20 -90 -35 -82 -27 -85 -27 -105
-9 -17 16 -20 30 -20 105 0 48 3 89 6 93 10 9 99 -28 132 -54z"/>
<path d="M342 1494 c4 -20 34 -41 45 -31 10 11 -11 41 -31 45 -12 3 -17 -2
-14 -14z"/>
<path d="M1855 1490 c-16 -18 -16 -20 -1 -26 19 -7 46 12 46 32 0 20 -24 17
-45 -6z"/>
<path d="M177 1453 c-4 -3 -7 -10 -7 -13 0 -4 68 -47 151 -94 108 -62 155 -84
162 -77 16 16 1 27 -152 115 -137 78 -143 81 -154 69z"/>
<path d="M1895 1376 c-78 -46 -141 -90 -143 -99 -2 -9 1 -17 7 -17 15 0 294
161 303 174 8 13 1 26 -15 25 -7 0 -75 -37 -152 -83z"/>
<path d="M436 1432 c-6 -11 2 -22 42 -55 32 -26 72 -36 72 -18 0 9 -89 81
-101 81 -4 0 -10 -4 -13 -8z"/>
<path d="M1737 1404 c-47 -37 -55 -48 -38 -58 9 -6 90 48 103 68 7 11 1 26
-11 26 -4 0 -29 -16 -54 -36z"/>
<path d="M210 1276 c0 -14 21 -26 46 -26 19 0 18 26 -2 34 -26 10 -44 7 -44
-8z"/>
<path d="M1983 1283 c-18 -7 -16 -33 1 -33 25 0 46 12 46 26 0 14 -23 17 -47
7z"/>
<path d="M320 1229 c0 -13 108 -61 121 -54 19 12 8 26 -33 45 -47 22 -88 26
-88 9z"/>
<path d="M1833 1220 c-42 -19 -53 -33 -34 -45 13 -7 121 41 121 54 0 17 -41
13 -87 -9z"/>
<path d="M64 1189 c-9 -15 4 -25 51 -36 22 -6 96 -25 163 -43 79 -20 127 -29
133 -23 17 17 -12 29 -173 72 -180 47 -165 44 -174 30z"/>
<path d="M1993 1157 c-84 -23 -157 -47 -163 -53 -25 -25 14 -25 113 1 186 48
238 66 234 78 -6 20 -26 17 -184 -26z"/>
<path d="M407 893 c-4 -3 -7 -12 -7 -20 0 -11 127 -13 721 -13 681 0 720 1
717 18 -3 16 -46 17 -714 20 -391 1 -714 -1 -717 -5z"/>
<path d="M552 637 c5 -255 -23 -215 378 -525 92 -71 114 -83 156 -88 33 -4 61
-1 84 9 48 20 428 305 464 347 51 61 56 85 56 270 l0 170 -571 0 -571 0 4
-183z m368 98 c24 -14 23 -15 -18 -9 -51 8 -82 -14 -82 -58 0 -56 43 -78 105
-52 18 7 18 6 6 -9 -22 -28 -85 -22 -110 9 -12 15 -21 35 -21 45 0 32 22 68
49 78 35 13 42 13 71 -4z m274 5 c14 -5 26 -15 26 -22 0 -9 -3 -9 -12 0 -13
13 -57 16 -75 4 -6 -4 -16 -19 -21 -32 -21 -54 32 -105 84 -81 20 9 25 9 22
-1 -3 -7 -23 -14 -46 -16 -31 -2 -46 2 -61 17 -36 36 -23 113 22 131 29 12 31
12 61 0z m397 0 c10 -6 19 -16 19 -22 0 -7 -5 -7 -14 1 -23 19 -71 10 -71 -13
0 -14 11 -22 39 -30 47 -13 66 -38 50 -63 -13 -22 -79 -29 -100 -12 -24 20
-15 30 11 13 31 -20 75 -12 75 15 0 14 -12 23 -42 33 -56 18 -71 43 -39 69 26
21 44 24 72 9z m-861 -15 c9 -11 10 -22 3 -38 -7 -15 -7 -27 1 -39 19 -31 -4
-53 -63 -56 l-51 -3 0 75 0 76 49 0 c31 0 53 -5 61 -15z m47 -97 c-2 -24 -4
-7 -4 37 0 44 2 63 4 43 2 -21 2 -57 0 -80z m212 75 l23 -36 21 36 c12 21 25
37 29 37 14 0 9 -14 -17 -52 -14 -20 -25 -51 -25 -67 0 -17 -4 -31 -10 -31 -5
0 -10 15 -10 33 0 18 -11 48 -25 69 -26 39 -30 48 -17 48 4 0 18 -17 31 -37z
m321 -104 l45 -6 -52 -1 -53 -2 2 78 2 77 5 -70 6 -70 45 -6z m122 134 c-51
-4 -53 -5 -50 -31 3 -24 8 -28 48 -33 l45 -6 -48 -1 c-47 -2 -48 -3 -45 -29 3
-25 8 -29 53 -34 l50 -6 -57 -1 -58 -2 0 75 0 75 58 -2 57 -2 -53 -3z m-577
-233 c4 -7 -2 -9 -17 -5 -33 8 -50 -7 -46 -41 3 -25 7 -29 35 -29 17 0 29 -3
26 -7 -2 -5 -18 -8 -34 -8 -39 0 -57 41 -34 76 16 25 58 33 70 14z m103 -2
c15 -15 15 -61 0 -76 -31 -31 -88 -4 -88 42 0 37 61 61 88 34z m99 -11 l22 28
-1 -55 c-1 -43 -2 -46 -5 -17 l-4 38 -18 -23 -18 -22 -14 25 c-14 24 -14 24
-20 -16 -6 -38 -6 -37 -7 15 l-1 55 22 -28 21 -27 23 27z m114 7 c17 -21 0
-48 -34 -52 -14 -2 -28 -11 -30 -20 -3 -9 -5 7 -6 36 -1 51 0 52 28 52 16 0
34 -7 42 -16z m87 -29 c25 -51 28 -65 10 -47 -15 15 -68 16 -68 0 0 -6 -3 -8
-6 -5 -8 8 24 97 35 97 4 0 17 -20 29 -45z m183 25 c10 14 19 21 18 15 0 -5
-6 -19 -14 -29 -8 -11 -15 -31 -16 -45 -1 -24 -1 -24 -10 5 -5 17 -16 37 -24
44 -8 7 -15 18 -15 24 1 6 10 0 21 -14 l21 -24 19 24z m-110 -22 l24 -33 6 35
c6 32 6 30 7 -15 l1 -50 -28 33 c-15 17 -30 32 -34 32 -3 0 -8 -15 -10 -32 -3
-25 -4 -22 -5 15 -1 26 2 47 6 47 5 0 19 -15 33 -32z m-191 -188 c9 -23 19
-30 40 -30 38 0 43 -10 19 -36 -16 -17 -20 -32 -17 -58 5 -41 6 -41 -32 -21
-27 14 -33 14 -60 0 -39 -20 -40 -20 -33 20 4 28 1 41 -16 59 -24 26 -19 36
19 36 21 0 31 7 40 30 7 17 16 30 20 30 4 0 13 -13 20 -30z"/>
<path d="M640 705 c0 -24 3 -26 38 -23 29 2 37 7 37 23 0 16 -8 21 -37 23 -35
3 -38 1 -38 -23z"/>
<path d="M640 631 c0 -27 3 -31 28 -31 36 0 55 13 50 36 -2 14 -13 20 -41 22
-35 3 -37 2 -37 -27z"/>
<path d="M890 480 c-16 -31 4 -62 38 -58 19 2 28 10 30 26 7 47 -47 72 -68 32z"/>
<path d="M1112 478 c3 -25 25 -33 47 -19 21 14 5 41 -24 41 -22 0 -26 -4 -23
-22z"/>
<path d="M1216 465 c-3 -9 1 -18 10 -22 19 -7 26 0 18 21 -8 20 -20 21 -28 1z"/>
</g>
</svg>
